<svg xmlns="http://www.w3.org/2000/svg" width="56.55" height="64.09" viewBox="0 0 56.55 64.09"><path d="M28.27,2.47a14.63,14.63,0,0,1,2.81.27,15.11,15.11,0,0,1,2.71.82,14.19,14.19,0,0,1,2.49,1.33,13.4,13.4,0,0,1,2.18,1.79,14.41,14.41,0,0,1,1.8,2.17A14.49,14.49,0,0,1,42.41,14a14.69,14.69,0,0,1,.28,2.8,14.53,14.53,0,0,1-.28,2.8,14.77,14.77,0,0,1-.82,2.7A14.27,14.27,0,0,1,38.46,27a13.94,13.94,0,0,1-2.18,1.79,14.84,14.84,0,0,1-2.49,1.32,13.65,13.65,0,0,1-2.71.82,13.88,13.88,0,0,1-2.81.28,14,14,0,0,1-2.81-.28,13.36,13.36,0,0,1-2.7-.82,14.1,14.1,0,0,1-2.49-1.32A14.5,14.5,0,0,1,18.08,27,14.46,14.46,0,0,1,15,22.33a13.36,13.36,0,0,1-.82-2.7,13.78,13.78,0,0,1-.28-2.8,13.92,13.92,0,0,1,.28-2.8A13.46,13.46,0,0,1,15,11.34a14.19,14.19,0,0,1,1.33-2.49,13.77,13.77,0,0,1,1.79-2.17,13.92,13.92,0,0,1,2.19-1.79,13.52,13.52,0,0,1,2.49-1.33,14.2,14.2,0,0,1,5.51-1.09Z" fill="none" stroke="#000" stroke-miterlimit="10" stroke-width="4.94"/><path d="M2.47,64.09a25.81,25.81,0,0,1,51.61,0" fill="none" stroke="#000" stroke-miterlimit="10" stroke-width="4.94"/></svg>